<svg viewBox="0 0 151 216" xmlns="http://www.w3.org/2000/svg" fill-rule="evenodd" clip-rule="evenodd" stroke-linejoin="round" stroke-miterlimit="1.414"><path d="M22.9 214.2c-.8-.2-1.6-.4-2.5-.6-9.6-2.1-16.6-13.2-17.1-23-.1-1.7.5-2.8 2.1-3.6 5.4-2.6 10.8-5.3 16.2-7.9.9-.4 1.4-1 1.6-1.9l17.7-64.8c.1-.4.2-.8.3-1.5h-1.9c-3.8-.1-6.7-3.1-6.7-6.9v-4.3c0-4.9 3-7.8 7.9-7.8 5.8.1 11.5 0 17.3 0h1c0-1.6.1-3 0-4.5 0-.4-.7-.8-1.1-1-3.3-1.5-5.3-4-5.8-7.5-.5-3.7.9-6.8 4-9 3.1-2.1 6.5-2.3 9.8-.5 3.4 1.8 5.1 4.8 4.9 8.6-.1 3.9-2.1 6.7-5.7 8.3-1.2.5-1.6 1.1-1.5 2.3.1 1.1 0 2.1 0 3.3.7.1 1.3 0 1.9 0 5.5 0 11-.1 16.5 0 5.1.1 7.9 3.3 7.8 8.5 0 1.6.1 3.1-.1 4.7-.6 3.6-3.4 6-7.1 6-.5 0-.9 0-1.5.1.1.6.1 1 .3 1.4 5.6 21.7 11.3 43.4 16.9 65.1.2.7.8 1.4 1.4 1.7 5.3 2.8 10.6 5.4 15.9 8.1 2.3 1.1 2.3 1.3 2.2 3.8-.7 9.4-6.9 19.8-16 22.1-1.2.3-2.4.3-3.6.6-25.1 0-50.1.4-75.1.2zM8.2 192c.1.7.2 1.3.3 1.8 2 7.5 8.6 15.5 16.6 15.5 23.8.2 47.7-.1 71.5 0 7.8 0 14.3-8 16-15.5.1-.3 0-1.4 0-1.8-34.8-.3-69.5.2-104.4 0zm54.9-46.2c-.1 10.2-.1 20.5-.2 30.7 0 1.3.3 1.7 1.6 1.7 9.1 0 18.2-.1 27.2 0h1.4v-.7c-2.7-10.6-5.5-21.2-8.2-31.8-.2-.9-.7-1-1.5-1h-19c-.4 0-1.3.3-1.3 1.1zm-35.2 32.4c10.3.1 20.3-.1 30.3 0 .1-11.2.1-22.4.2-33.5h-.8c-6.6 0-13.2.1-19.7 0-1 0-1.1.3-1.3 1-2.7 9.8-5.3 19.6-8 29.4-.2.8-.4 2.1-.7 3.1zM83.2 140c-.1-.4-4.7-18.8-7-27.7-.2-.9-.6-1.4-1.5-1.3h-9.5c-2 0-1.9.2-1.9 2.1 0 6.6-.2 24.6-.2 26.9 6.8 0 13.5-.1 20.1 0zm-24.7 0c.1-.3.1-18.8.2-27.8 0-1-.6-1.2-1.3-1.2-3.3 0-6.4.1-9.9 0-1.1 0-1.5.4-1.8 1.4l-5.7 21c-.6 2-1.1 4.3-1.7 6.5 6.8.1 13.6 0 20.2.1zM40.2 96.7c-2 0-3 .9-3 2.9v3.3c0 2.7.8 3.8 3.6 3.8 8.9.1 36.4 0 41.2 0 2.2 0 3.1-.9 3.1-3.1v-3.5c0-2.2-.8-3.4-3.1-3.4-7 0-34.8.1-41.8 0zm64.6 91.1s-5.2-3-7.9-4.2c-.9-.4-1.9-.7-2.8-.7-20.8-.2-43.4-.2-64.1-.5-5.3 0-6.5.4-10.2 2.8-.8.5-3.7 2.7-3.7 2.7l88.7-.1zM66 77.9c0-2.7-2.1-4.9-4.8-4.9-2.6 0-4.8 2.2-4.9 4.8-.1 2.6 2.2 4.9 4.8 4.9 2.8.1 4.9-2.1 4.9-4.8z"/><path d="M8.2 192h104.4s.1 1.5 0 1.8c-1.7 7.6-8.3 15.8-16.1 15.7-23.8-.1-47.7.2-71.5 0-8-.1-14.5-8.2-16.5-15.7l-.3-1.8z" fill="#DE5C5D"/><path d="M40.2 96.7c-2 0-3 .9-3 2.9v3.3c0 2.7.8 3.8 3.6 3.8 8.9.1 36.4 0 41.2 0 2.2 0 3.1-.9 3.1-3.1v-3.5c0-2.2-.8-3.4-3.1-3.4-7 0-34.8.1-41.8 0zM104.8 187.8c-29.5-.2-58.9.2-88.7 0 .5-.3 2.9-2.1 3.7-2.6 3.7-2.4 4.6-2.8 10.1-2.8 20.8.3 43.4.3 64.2.5 1 0 2 .3 2.8.7 2.8 1.2 7.9 4.1 7.9 4.2z" fill="#fff"/><path d="M66 77.9c0-2.7-2.1-4.9-4.8-4.9-2.6 0-4.8 2.2-4.9 4.8-.1 2.6 2.2 4.9 4.8 4.9 2.8.1 4.9-2.1 4.9-4.8z" fill="#DE5C5D"/><path d="M58.8 1.8h4.9v67.6h-4.9z"/><path d="M148.1 44.8H63.6V5.3h84.5L133.6 25l14.5 19.8z" fill="#DE5C5D"/><g fill="#fff" fill-rule="nonzero"><path d="M84.758 35.635c5.797 0 9.672-4.93 9.672-11.222v-.062c0-6.292-3.875-11.16-9.61-11.16-5.766 0-9.672 4.93-9.672 11.223v.062c0 6.293 3.813 11.16 9.61 11.16zm.062-4.31c-2.883 0-4.774-2.944-4.774-6.912v-.062c0-3.967 1.86-6.85 4.712-6.85 2.852 0 4.774 2.976 4.774 6.913v.062c0 3.937-1.83 6.85-4.712 6.85zM97.313 40.285c3.69-.062 5.735-1.705 5.735-5.797v-4.185h-5.022v4.96h1.922c.155 1.767-.9 2.852-3.038 3.07l.403 1.952zM116.254 35.635c5.797 0 9.672-4.93 9.672-11.222v-.062c0-6.292-3.875-11.16-9.61-11.16-5.766 0-9.672 4.93-9.672 11.223v.062c0 6.293 3.813 11.16 9.61 11.16zm.062-4.31c-2.883 0-4.774-2.944-4.774-6.912v-.062c0-3.967 1.86-6.85 4.712-6.85 2.852 0 4.774 2.976 4.774 6.913v.062c0 3.937-1.83 6.85-4.712 6.85z"/></g></svg>