<svg viewBox="0 0 64 64" width="64" height="64" xmlns="http://www.w3.org/2000/svg" fill-rule="evenodd" clip-rule="evenodd" stroke-linejoin="round" stroke-miterlimit="1.414"><path d="M50.7 28.8c-4.2-5.2-9-11.1-18.6-11.1-9.6 0-14.4 5.9-18.6 11.1-3.9 4.9-7 8.7-13.5 8.7v6.6c9.6 0 14.4-5.9 18.6-11.1 3.9-4.9 7-8.7 13.5-8.7s9.5 3.8 13.5 8.7c4.2 5.2 9 11.1 18.6 11.1v-6.6c-6.5 0-9.6-3.8-13.5-8.7z" fill="#fff" fill-rule="nonzero"/><path d="M64 19.798V64H0V19.8c.14-.002.28-.004.418-.01.125-.006.25-.015.374-.026.537-.055 1.066-.167 1.564-.38.828-.355 1.534-.95 2.175-1.572.824-.8 1.563-1.685 2.29-2.573.55-.676 1.09-1.36 1.637-2.037 1.254-1.543 2.526-3.072 3.91-4.5 1.86-1.92 3.92-3.656 6.212-5.04 2.068-1.25 4.31-2.202 6.65-2.81C27.47.267 29.785 0 32.1 0s4.63.268 6.87.852c2.187.57 4.29 1.438 6.245 2.57 1.374.796 2.672 1.72 3.89 2.737 1.107.922 2.147 1.92 3.135 2.97 1.38 1.463 2.66 3.02 3.92 4.588.353.44.704.883 1.06 1.323.21.26.422.52.636.777.65.773 1.315 1.54 2.056 2.226.634.588 1.338 1.13 2.157 1.43.618.227 1.275.308 1.93.325z" fill="#005D7B"/></svg>